<svg version="1.1" xmlns="http://www.w3.org/2000/svg" xmlns:xlink="http://www.w3.org/1999/xlink" width="500" height="500"><defs><clipPath id="kNSAVZFhtzCS"><path fill="none" stroke="none" d=" M 0 32 L 500 32 L 500 500 L 0 500 L 0 32 Z"/></clipPath></defs><g><g><rect fill="none" stroke="rgb(75,192,192)" x="149.9775390625" y="10" width="40" height="12" stroke-opacity="1" stroke-miterlimit="10" stroke-width="3"/><rect fill="rgb(75,192,192)" stroke="none" x="149.9775390625" y="10" width="40" height="12" fill-opacity="0.3"/></g><text fill="#666" stroke="none" font-family="'Helvetica Neue', 'Helvetica', 'Arial', sans-serif" font-size="12px" font-style="normal" font-weight="normal" text-decoration="normal" x="195.9775390625" y="16" text-anchor="start" dominant-baseline="central">DataSeries</text><g><rect fill="none" stroke="rgb(255,192,192)" x="265.3388671875" y="10" width="40" height="12" stroke-opacity="1" stroke-miterlimit="10" stroke-width="3" stroke-dasharray="5,10"/><rect fill="rgb(0,0,0)" stroke="none" x="265.3388671875" y="10" width="40" height="12" fill-opacity="0.1"/></g><text fill="#666" stroke="none" font-family="'Helvetica Neue', 'Helvetica', 'Arial', sans-serif" font-size="12px" font-style="normal" font-weight="normal" text-decoration="normal" x="311.3388671875" y="16" text-anchor="start" dominant-baseline="central">Control</text><g><path fill="none" stroke="rgb(0,0,0)" paint-order="fill stroke markers" d=" M 250 278 L 77.9970738570334 140.83224359107865" stroke-opacity="0.1" stroke-miterlimit="10"/><text fill="#666" stroke="none" font-family="'Helvetica Neue', 'Helvetica', 'Arial', sans-serif" font-size="10px" font-style="normal" font-weight="normal" text-decoration="normal" x="74.08791644469324" y="131.714794581785" text-anchor="end" dominant-baseline="central">Axes 7</text><path fill="none" stroke="rgb(0,0,0)" paint-order="fill stroke markers" d=" M 250 278 L 35.51585931999878 326.9546054703892" stroke-opacity="0.1" stroke-miterlimit="10"/><text fill="#666" stroke="none" font-family="'Helvetica Neue', 'Helvetica', 'Arial', sans-serif" font-size="10px" font-style="normal" font-weight="normal" text-decoration="normal" x="30.641219759089665" y="334.0672101401708" text-anchor="end" dominant-baseline="central">Axes 6</text><path fill="none" stroke="rgb(0,0,0)" paint-order="fill stroke markers" d=" M 250 278 L 154.5455773941372 476.21315093853224" stroke-opacity="0.1" stroke-miterlimit="10"/><text fill="#666" stroke="none" font-family="'Helvetica Neue', 'Helvetica', 'Arial', sans-serif" font-size="10px" font-style="normal" font-weight="normal" text-decoration="normal" x="152.37615869854943" y="486.7179952780443" text-anchor="end" dominant-baseline="central">Axes 5</text><path fill="none" stroke="rgb(0,0,0)" paint-order="fill stroke markers" d=" M 250 278 L 345.4544226058628 476.21315093853224" stroke-opacity="0.1" stroke-miterlimit="10"/><text fill="#666" stroke="none" font-family="'Helvetica Neue', 'Helvetica', 'Arial', sans-serif" font-size="10px" font-style="normal" font-weight="normal" text-decoration="normal" x="347.6238413014506" y="486.7179952780443" text-anchor="start" dominant-baseline="central">Axes 4</text><path fill="none" stroke="rgb(0,0,0)" paint-order="fill stroke markers" d=" M 250 278 L 464.48414068000125 326.9546054703892" stroke-opacity="0.1" stroke-miterlimit="10"/><text fill="#666" stroke="none" font-family="'Helvetica Neue', 'Helvetica', 'Arial', sans-serif" font-size="10px" font-style="normal" font-weight="normal" text-decoration="normal" x="469.35878024091033" y="334.06721014017074" text-anchor="start" dominant-baseline="central">Axes 3</text><path fill="none" stroke="rgb(0,0,0)" paint-order="fill stroke markers" d=" M 250 278 L 422.00292614296654 140.83224359107862" stroke-opacity="0.1" stroke-miterlimit="10"/><text fill="#666" stroke="none" font-family="'Helvetica Neue', 'Helvetica', 'Arial', sans-serif" font-size="10px" font-style="normal" font-weight="normal" text-decoration="normal" x="425.9120835553067" y="131.71479458178496" text-anchor="start" dominant-baseline="central">Axes 2</text><path fill="none" stroke="rgb(0,0,0)" paint-order="fill stroke markers" d=" M 250 278 L 250 57.99999999999997" stroke-opacity="0.1" stroke-miterlimit="10"/><text fill="#666" stroke="none" font-family="'Helvetica Neue', 'Helvetica', 'Arial', sans-serif" font-size="10px" font-style="normal" font-weight="normal" text-decoration="normal" x="250.00000000000003" y="38.99999999999997" text-anchor="middle" dominant-baseline="central">Axes 1</text></g><g><path fill="none" stroke="rgb(0,0,0)" paint-order="fill stroke markers" d=" M 250 234 L 284.4005852285933 250.56644871821572 L 292.89682813600024 287.7909210940778 L 269.09088452117254 317.64263018770646 L 230.90911547882746 317.64263018770646 L 207.10317186399976 287.7909210940778 L 215.59941477140669 250.56644871821572 Z" stroke-opacity="0.1" stroke-miterlimit="10"/></g><g transform="translate(250,278) rotate(0,0,0)"><rect fill="rgb(255,255,255)" stroke="none" x="-8.673828125" y="-52" width="17.34765625" height="16" fill-opacity="0.75"/><text fill="#666" stroke="none" font-family="'Helvetica Neue', 'Helvetica', 'Arial', sans-serif" font-size="12px" font-style="normal" font-weight="normal" text-decoration="normal" x="0" y="-44" text-anchor="middle" dominant-baseline="central">10</text></g><g><path fill="none" stroke="rgb(0,0,0)" paint-order="fill stroke markers" d=" M 250 190 L 318.80117045718663 223.13289743643145 L 335.7936562720005 297.5818421881557 L 288.18176904234514 357.2852603754129 L 211.8182309576549 357.2852603754129 L 164.20634372799952 297.5818421881557 L 181.19882954281337 223.13289743643145 Z" stroke-opacity="0.1" stroke-miterlimit="10"/></g><g transform="translate(250,278) rotate(0,0,0)"><rect fill="rgb(255,255,255)" stroke="none" x="-8.673828125" y="-96" width="17.34765625" height="16" fill-opacity="0.75"/><text fill="#666" stroke="none" font-family="'Helvetica Neue', 'Helvetica', 'Arial', sans-serif" font-size="12px" font-style="normal" font-weight="normal" text-decoration="normal" x="0" y="-88" text-anchor="middle" dominant-baseline="central">20</text></g><g><path fill="none" stroke="rgb(0,0,0)" paint-order="fill stroke markers" d=" M 250 146 L 353.2017556857799 195.69934615464717 L 378.6904844080007 307.3727632822335 L 307.2726535635177 396.9278905631193 L 192.72734643648232 396.9278905631193 L 121.30951559199929 307.3727632822335 L 146.79824431422006 195.6993461546472 Z" stroke-opacity="0.1" stroke-miterlimit="10"/></g><g transform="translate(250,278) rotate(0,0,0)"><rect fill="rgb(255,255,255)" stroke="none" x="-8.673828125" y="-140" width="17.34765625" height="16" fill-opacity="0.75"/><text fill="#666" stroke="none" font-family="'Helvetica Neue', 'Helvetica', 'Arial', sans-serif" font-size="12px" font-style="normal" font-weight="normal" text-decoration="normal" x="0" y="-132" text-anchor="middle" dominant-baseline="central">30</text></g><g><path fill="none" stroke="rgb(0,0,0)" paint-order="fill stroke markers" d=" M 250 102 L 387.60234091437326 168.2657948728629 L 421.58731254400095 317.1636843763113 L 326.3635380846902 436.5705207508258 L 173.63646191530978 436.5705207508258 L 78.41268745599905 317.1636843763114 L 112.39765908562674 168.26579487286293 Z" stroke-opacity="0.1" stroke-miterlimit="10"/></g><g transform="translate(250,278) rotate(0,0,0)"><rect fill="rgb(255,255,255)" stroke="none" x="-8.673828125" y="-184" width="17.34765625" height="16" fill-opacity="0.75"/><text fill="#666" stroke="none" font-family="'Helvetica Neue', 'Helvetica', 'Arial', sans-serif" font-size="12px" font-style="normal" font-weight="normal" text-decoration="normal" x="0" y="-176" text-anchor="middle" dominant-baseline="central">40</text></g><g><path fill="none" stroke="rgb(0,0,0)" paint-order="fill stroke markers" d=" M 250 57.99999999999997 L 422.00292614296654 140.83224359107862 L 464.48414068000125 326.9546054703892 L 345.4544226058628 476.21315093853224 L 154.5455773941372 476.21315093853224 L 35.51585931999878 326.9546054703892 L 77.9970738570334 140.83224359107865 Z" stroke-opacity="0.1" stroke-miterlimit="10"/></g><g transform="translate(250,278) rotate(0,0,0)"><rect fill="rgb(255,255,255)" stroke="none" x="-8.673828125" y="-228.00000000000003" width="17.34765625" height="16" fill-opacity="0.75"/><text fill="#666" stroke="none" font-family="'Helvetica Neue', 'Helvetica', 'Arial', sans-serif" font-size="12px" font-style="normal" font-weight="normal" text-decoration="normal" x="0" y="-220.00000000000003" text-anchor="middle" dominant-baseline="central">50</text></g><g><path fill="none" stroke="rgb(255,192,192)" paint-order="fill stroke markers" d=" M 250 102 C 263.7602340914373 102 379.0229752871732 157.50761065404734 387.60234091437326 168.2657948728629 C 396.1817065415733 179.02397909167846 425.7871451554706 305.20867050587947 421.58731254400095 317.1636843763113 C 417.754176420385 328.07488007490514 319.3179771683633 394.6240364260326 307.2726535635177 396.9278905631193 C 298.3410690097287 398.63619402594276 221.56604058208868 360.6826492240497 211.8182309576549 357.2852603754129 C 198.6800439713368 352.70622860536895 83.15530008935623 326.1803907597418 78.41268745599905 317.1636843763114 C 73.21324290215343 307.2784442094868 103.8182934584267 179.02397909167848 112.39765908562674 168.26579487286293 C 120.97702471282679 157.50761065404737 236.23976590856267 102 250 102" stroke-opacity="1" stroke-miterlimit="10" stroke-width="3" stroke-dasharray="5,10"/></g><path fill="rgb(255,192,192)" stroke="rgb(255,192,192)" paint-order="fill stroke markers" d=" M 252 102 A 2 2 0 1 1 251.9999990000001 101.99800000033333 Z" fill-opacity="1" stroke-opacity="1" stroke-miterlimit="10" stroke-dasharray=""/><path fill="rgb(255,192,192)" stroke="rgb(255,192,192)" paint-order="fill stroke markers" d=" M 389.60234091437326 168.2657948728629 A 2 2 0 1 1 389.6023399143733 168.26379487319622 Z" fill-opacity="1" stroke-opacity="1" stroke-miterlimit="10" stroke-dasharray=""/><path fill="rgb(255,192,192)" stroke="rgb(255,192,192)" paint-order="fill stroke markers" d=" M 423.58731254400095 317.1636843763113 A 2 2 0 1 1 423.587311544001 317.16168437664464 Z" fill-opacity="1" stroke-opacity="1" stroke-miterlimit="10" stroke-dasharray=""/><path fill="rgb(255,192,192)" stroke="rgb(255,192,192)" paint-order="fill stroke markers" d=" M 309.2726535635177 396.9278905631193 A 2 2 0 1 1 309.27265256351774 396.92589056345264 Z" fill-opacity="1" stroke-opacity="1" stroke-miterlimit="10" stroke-dasharray=""/><path fill="rgb(255,192,192)" stroke="rgb(255,192,192)" paint-order="fill stroke markers" d=" M 213.8182309576549 357.2852603754129 A 2 2 0 1 1 213.81822995765498 357.28326037574624 Z" fill-opacity="1" stroke-opacity="1" stroke-miterlimit="10" stroke-dasharray=""/><path fill="rgb(255,192,192)" stroke="rgb(255,192,192)" paint-order="fill stroke markers" d=" M 80.41268745599905 317.1636843763114 A 2 2 0 1 1 80.41268645599914 317.1616843766447 Z" fill-opacity="1" stroke-opacity="1" stroke-miterlimit="10" stroke-dasharray=""/><path fill="rgb(255,192,192)" stroke="rgb(255,192,192)" paint-order="fill stroke markers" d=" M 114.39765908562674 168.26579487286293 A 2 2 0 1 1 114.39765808562683 168.26379487319625 Z" fill-opacity="1" stroke-opacity="1" stroke-miterlimit="10" stroke-dasharray=""/><g clip-path="url(#kNSAVZFhtzCS)"><g><path fill="rgb(75,192,192)" stroke="none" paint-order="stroke fill markers" d=" M 250 146 C 288.776302974504 171.3006934247888 235.02767151229648 223.9400335385495 267.20029261429664 264.28322435910786 C 299.3729137162968 304.62641517966625 373.064613852551 282.4356518346544 378.6904844080007 307.3727632822335 C 383.5553520665753 328.9366698428069 334.6725535352247 334.8964785551915 288.18176904234514 357.2852603754129 C 241.69098454946553 379.6740421956344 228.47879132155305 410.4020477931851 192.72734643648232 396.9278905631193 C 155.76687163038014 382.99806897307593 164.5726676547078 351.1711593318634 142.75792965999938 302.4773027351946 C 107.20753136498334 223.1233358458431 51.027440280404186 180.18373600863407 77.9970738570334 140.83224359107865 C 104.6484754504045 101.94508464103674 194.17469359587236 109.57520304077417 250 146 L 250 278 L 250 278 L 250 278 L 250 278 L 250 278 L 250 278 L 250 278 L 250 278 Z" fill-opacity="0.3"/></g></g><g><path fill="none" stroke="rgb(75,192,192)" paint-order="fill stroke markers" d=" M 250 146 C 288.776302974504 171.3006934247888 235.02767151229648 223.9400335385495 267.20029261429664 264.28322435910786 C 299.3729137162968 304.62641517966625 373.064613852551 282.4356518346544 378.6904844080007 307.3727632822335 C 383.5553520665753 328.9366698428069 334.6725535352247 334.8964785551915 288.18176904234514 357.2852603754129 C 241.69098454946553 379.6740421956344 228.47879132155305 410.4020477931851 192.72734643648232 396.9278905631193 C 155.76687163038014 382.99806897307593 164.5726676547078 351.1711593318634 142.75792965999938 302.4773027351946 C 107.20753136498334 223.1233358458431 51.027440280404186 180.18373600863407 77.9970738570334 140.83224359107865 C 104.6484754504045 101.94508464103674 194.17469359587236 109.57520304077417 250 146" stroke-opacity="1" stroke-miterlimit="10" stroke-width="3"/></g><path fill="rgb(75,192,192)" stroke="rgb(75,192,192)" paint-order="fill stroke markers" d=" M 254 146 A 4 4 0 1 1 253.99999800000018 145.99600000066667 Z" fill-opacity="0.5" stroke-opacity="1" stroke-miterlimit="10" stroke-width="2" stroke-dasharray=""/><path fill="rgb(75,192,192)" stroke="rgb(75,192,192)" paint-order="fill stroke markers" d=" M 271.20029261429664 264.28322435910786 A 4 4 0 1 1 271.2002906142968 264.2792243597745 Z" fill-opacity="0.5" stroke-opacity="1" stroke-miterlimit="10" stroke-width="2" stroke-dasharray=""/><path fill="rgb(75,192,192)" stroke="rgb(75,192,192)" paint-order="fill stroke markers" d=" M 382.6904844080007 307.3727632822335 A 4 4 0 1 1 382.6904824080009 307.36876328290015 Z" fill-opacity="0.5" stroke-opacity="1" stroke-miterlimit="10" stroke-width="2" stroke-dasharray=""/><path fill="rgb(75,192,192)" stroke="rgb(75,192,192)" paint-order="fill stroke markers" d=" M 292.18176904234514 357.2852603754129 A 4 4 0 1 1 292.1817670423453 357.28126037607956 Z" fill-opacity="0.5" stroke-opacity="1" stroke-miterlimit="10" stroke-width="2" stroke-dasharray=""/><path fill="rgb(75,192,192)" stroke="rgb(75,192,192)" paint-order="fill stroke markers" d=" M 196.72734643648232 396.9278905631193 A 4 4 0 1 1 196.7273444364825 396.92389056378596 Z" fill-opacity="0.5" stroke-opacity="1" stroke-miterlimit="10" stroke-width="2" stroke-dasharray=""/><path fill="rgb(75,192,192)" stroke="rgb(75,192,192)" paint-order="fill stroke markers" d=" M 146.75792965999938 302.4773027351946 A 4 4 0 1 1 146.75792765999955 302.47330273586124 Z" fill-opacity="0.5" stroke-opacity="1" stroke-miterlimit="10" stroke-width="2" stroke-dasharray=""/><path fill="rgb(75,192,192)" stroke="rgb(75,192,192)" paint-order="fill stroke markers" d=" M 81.9970738570334 140.83224359107865 A 4 4 0 1 1 81.99707185703356 140.82824359174532 Z" fill-opacity="0.5" stroke-opacity="1" stroke-miterlimit="10" stroke-width="2" stroke-dasharray=""/><g transform="translate(78,141) rotate(0,0,0)"><text fill="#666" stroke="none" font-family="'Helvetica Neue', 'Helvetica', 'Arial', sans-serif" font-size="12px" font-style="normal" font-weight="normal" text-decoration="normal" x="-7" y="0" text-anchor="start" dominant-baseline="central">50</text></g><g transform="translate(112,168) rotate(0,0,0)"><text fill="#666" stroke="none" font-family="'Helvetica Neue', 'Helvetica', 'Arial', sans-serif" font-size="12px" font-style="normal" font-weight="normal" text-decoration="normal" x="-7" y="0" text-anchor="start" dominant-baseline="central">40</text></g><g transform="translate(143,302) rotate(0,0,0)"><text fill="#666" stroke="none" font-family="'Helvetica Neue', 'Helvetica', 'Arial', sans-serif" font-size="12px" font-style="normal" font-weight="normal" text-decoration="normal" x="-7" y="0" text-anchor="start" dominant-baseline="central">25</text></g><g transform="translate(78,317) rotate(0,0,0)"><text fill="#666" stroke="none" font-family="'Helvetica Neue', 'Helvetica', 'Arial', sans-serif" font-size="12px" font-style="normal" font-weight="normal" text-decoration="normal" x="-7" y="0" text-anchor="start" dominant-baseline="central">40</text></g><g transform="translate(193,397) rotate(0,0,0)"><text fill="#666" stroke="none" font-family="'Helvetica Neue', 'Helvetica', 'Arial', sans-serif" font-size="12px" font-style="normal" font-weight="normal" text-decoration="normal" x="-7" y="0" text-anchor="start" dominant-baseline="central">30</text></g><g transform="translate(212,357) rotate(0,0,0)"><text fill="#666" stroke="none" font-family="'Helvetica Neue', 'Helvetica', 'Arial', sans-serif" font-size="12px" font-style="normal" font-weight="normal" text-decoration="normal" x="-7" y="0" text-anchor="start" dominant-baseline="central">20</text></g><g transform="translate(288,357) rotate(0,0,0)"><text fill="#666" stroke="none" font-family="'Helvetica Neue', 'Helvetica', 'Arial', sans-serif" font-size="12px" font-style="normal" font-weight="normal" text-decoration="normal" x="-7" y="0" text-anchor="start" dominant-baseline="central">20</text></g><g transform="translate(307,397) rotate(0,0,0)"><text fill="#666" stroke="none" font-family="'Helvetica Neue', 'Helvetica', 'Arial', sans-serif" font-size="12px" font-style="normal" font-weight="normal" text-decoration="normal" x="-7" y="0" text-anchor="start" dominant-baseline="central">30</text></g><g transform="translate(379,307) rotate(0,0,0)"><text fill="#666" stroke="none" font-family="'Helvetica Neue', 'Helvetica', 'Arial', sans-serif" font-size="12px" font-style="normal" font-weight="normal" text-decoration="normal" x="-7" y="0" text-anchor="start" dominant-baseline="central">30</text></g><g transform="translate(422,317) rotate(0,0,0)"><text fill="#666" stroke="none" font-family="'Helvetica Neue', 'Helvetica', 'Arial', sans-serif" font-size="12px" font-style="normal" font-weight="normal" text-decoration="normal" x="-7" y="0" text-anchor="start" dominant-baseline="central">40</text></g><g transform="translate(267,264) rotate(0,0,0)"><text fill="#666" stroke="none" font-family="'Helvetica Neue', 'Helvetica', 'Arial', sans-serif" font-size="12px" font-style="normal" font-weight="normal" text-decoration="normal" x="-3" y="0" text-anchor="start" dominant-baseline="central">5</text></g><g transform="translate(388,168) rotate(0,0,0)"><text fill="#666" stroke="none" font-family="'Helvetica Neue', 'Helvetica', 'Arial', sans-serif" font-size="12px" font-style="normal" font-weight="normal" text-decoration="normal" x="-7" y="0" text-anchor="start" dominant-baseline="central">40</text></g><g transform="translate(250,146) rotate(0,0,0)"><text fill="#666" stroke="none" font-family="'Helvetica Neue', 'Helvetica', 'Arial', sans-serif" font-size="12px" font-style="normal" font-weight="normal" text-decoration="normal" x="-7" y="0" text-anchor="start" dominant-baseline="central">30</text></g><g transform="translate(250,102) rotate(0,0,0)"><text fill="#666" stroke="none" font-family="'Helvetica Neue', 'Helvetica', 'Arial', sans-serif" font-size="12px" font-style="normal" font-weight="normal" text-decoration="normal" x="-7" y="0" text-anchor="start" dominant-baseline="central">40</text></g></g></svg>